<svg id="Layer_1" data-name="Layer 1" xmlns="http://www.w3.org/2000/svg" viewBox="0 0 62.49 62.49"><defs><style>.cls-1{fill:#878d91;}.cls-2{fill:#3e4549;}</style></defs><title>2020_0731_CLY_CLX96_ICON</title><circle class="cls-1" cx="31.24" cy="31.24" r="31.24"/><g id="Group_92" data-name="Group 92"><path id="Path_68" data-name="Path 68" class="cls-2" d="M35.68,30.85a4.19,4.19,0,0,1-1.27,3l-14,13.62a4.17,4.17,0,0,1-5.81-6L25.53,30.85,14.6,20.22a4.17,4.17,0,0,1,5.81-6l14,13.62A4.17,4.17,0,0,1,35.68,30.85Z"/></g><path class="cls-2" d="M43.69,54.49H34.21a4,4,0,0,1,0-8h5.48V15.17H34.21a4,4,0,0,1,0-8h9.48a4,4,0,0,1,4,4V50.49A4,4,0,0,1,43.69,54.49Z"/></svg>