<svg id="Layer_1" data-name="Layer 1" xmlns="http://www.w3.org/2000/svg" viewBox="0 0 44.66 44.66"><defs><style>.cls-1{fill:#3e4549;}.cls-2{fill:#878d91;}</style></defs><title>2020_0731_CLY_CLX96_ICON</title><g id="Component_9_1" data-name="Component 9 1"><g id="Group_5" data-name="Group 5"><circle id="Ellipse_6" data-name="Ellipse 6" class="cls-1" cx="22.33" cy="22.33" r="22.33"/></g></g><path id="Path_65" data-name="Path 65" class="cls-2" d="M22.22,35.47A13.26,13.26,0,1,1,22.22,9h.55a.55.55,0,0,1,.55.55.55.55,0,0,1-.08.29A15,15,0,0,0,22.72,22c1.62,3.63,6,6.23,10.55,6.3a.55.55,0,0,1,.54.56.57.57,0,0,1-.08.28A13.53,13.53,0,0,1,22.22,35.47Z"/></svg>