<svg id="Layer_1" data-name="Layer 1" xmlns="http://www.w3.org/2000/svg" viewBox="0 0 65.53 65.53"><defs><style>.cls-1{fill:#f16a22;}.cls-2{fill:#3e4549;}</style></defs><title>2020_0731_CLY_CLX96_ICON</title><circle class="cls-1" cx="32.77" cy="32.77" r="32.77"/><path class="cls-2" d="M31.81,25.93a3.65,3.65,0,0,1,6.56,2,3.66,3.66,0,0,1,6.57,2c.16,0,.22-.17.31-.27a3.58,3.58,0,0,1,3.93-.91,3.53,3.53,0,0,1,2.27,3.36c0,3.64,0,7.28,0,10.92A11.74,11.74,0,0,1,42,54.57a9.1,9.1,0,0,1-1.95.21c-2.06,0-4.12,0-6.18,0A12.76,12.76,0,0,1,24,50.15c-3-3.56-6-7.2-9-10.81a3.67,3.67,0,0,1-.2-4.75,3.6,3.6,0,0,1,5.35-.38c1.15,1.14,2.25,2.3,3.38,3.45a1.64,1.64,0,0,0,.35.3.45.45,0,0,0,.67-.33,4.13,4.13,0,0,0,0-.5q0-11.28,0-22.58a3.57,3.57,0,1,1,7.13-.29c0,3.74,0,7.49,0,11.23A.86.86,0,0,0,31.81,25.93Z"/></svg>