<svg id="Layer_1" data-name="Layer 1" xmlns="http://www.w3.org/2000/svg" viewBox="0 0 62.49 62.49"><defs><style>.cls-1{fill:#f16a22;}.cls-2{fill:#3e4549;}</style></defs><title>2020_0731_CLY_CLX96_ICON</title><circle class="cls-1" cx="31.24" cy="31.24" r="31.24"/><g id="Group_92" data-name="Group 92"><path id="Path_68" data-name="Path 68" class="cls-2" d="M28.07,27.86l14-13.62a4.17,4.17,0,0,1,5.81,6L37,30.85,47.89,41.49a4.17,4.17,0,0,1-5.81,6l-14-13.62a4.18,4.18,0,0,1,0-6Z"/></g><path class="cls-2" d="M28.27,54.49H18.8a4,4,0,0,1-4-4V11.17a4,4,0,0,1,4-4h9.47a4,4,0,1,1,0,8H22.8V46.49h5.47a4,4,0,1,1,0,8Z"/></svg>