<svg id="Layer_1" data-name="Layer 1" xmlns="http://www.w3.org/2000/svg" viewBox="0 0 552.27 162.51"><defs><style>.cls-1{fill:#fff;}.cls-2{fill:none;}</style></defs><rect class="cls-1" x="251.17" y="22.29" width="2.5" height="117.14"/><path class="cls-1" d="M111.33,105.16h29.38V93.44H117.27V34.86H129V81.73h11.72V28.92a5.78,5.78,0,0,0-5.78-5.78h-23.6a5.77,5.77,0,0,0-5.77,5.78V99.39A5.77,5.77,0,0,0,111.33,105.16Z" transform="translate(0 -0.39)"/><path class="cls-1" d="M42.55,136.56a41.79,41.79,0,0,1-8.7,1.16c-3.11,0-4.81-.21-5.84-.74a2.24,2.24,0,0,1-1.27-2.23,2.57,2.57,0,0,1,1.2-2.31c1-.67,2.89-1,5.8-1a39.29,39.29,0,0,1,8.64,1.1l.15,0,.62-2.64-.14,0a31.69,31.69,0,0,0-9.27-1.31c-4.48,0-6.85.91-8,1.67a4.92,4.92,0,0,0-2.46,4.48,4.74,4.74,0,0,0,2.44,4.46c1.81,1,4.11,1.37,8.18,1.37a36.18,36.18,0,0,0,9.23-1.34l.13,0-.51-2.68Z" transform="translate(0 -0.39)"/><polygon class="cls-1" points="53.11 128.34 49.63 128.34 49.63 140.05 66.35 140.05 66.35 137.19 53.11 137.19 53.11 128.34"/><polygon class="cls-1" points="101.78 128.7 101.78 128.34 97.09 128.34 91.35 133.12 85.61 128.34 80.92 128.34 80.92 128.7 89.61 135.97 89.61 140.05 93.08 140.05 93.08 135.97 101.78 128.7"/><path class="cls-1" d="M112.82,128.73H110.6l-10.38,11.36v.35h4.09l2-2.15h10.86l2,2.15h4.09v-.35ZM115,136h-6.62l1.4-1.54c.81-.87,1.64-1.89,1.9-2.21.27.32,1.12,1.34,1.92,2.21Z" transform="translate(0 -0.39)"/><path class="cls-1" d="M145.67,136.56a41.79,41.79,0,0,1-8.7,1.16c-3.12,0-4.81-.21-5.84-.74a2.24,2.24,0,0,1-1.27-2.23,2.57,2.57,0,0,1,1.2-2.31c1.05-.67,2.89-1,5.79-1a39.31,39.31,0,0,1,8.65,1.1l.15,0,.61-2.64-.13,0a31.71,31.71,0,0,0-9.28-1.31c-4.47,0-6.84.91-8,1.67a4.92,4.92,0,0,0-2.46,4.48,4.75,4.75,0,0,0,2.43,4.46c1.82,1,4.12,1.37,8.19,1.37a36.18,36.18,0,0,0,9.23-1.34l.12,0-.5-2.68Z" transform="translate(0 -0.39)"/><polygon class="cls-1" points="169.41 133.04 156.46 133.04 156.46 128.34 152.99 128.34 152.99 140.05 156.46 140.05 156.46 135.9 169.41 135.9 169.41 140.05 172.89 140.05 172.89 128.34 169.41 128.34 169.41 133.04"/><polygon class="cls-1" points="178.41 131.18 186.51 131.18 186.51 140.05 189.98 140.05 189.98 131.18 198.08 131.18 198.08 128.32 178.41 128.32 178.41 131.18"/><path class="cls-1" d="M220.64,133.78a48.08,48.08,0,0,0-8.63-.53,40.44,40.44,0,0,1-5.34-.18c-.59-.13-.67-.39-.67-.64s.11-.56.7-.75a25,25,0,0,1,6.47-.47,51.19,51.19,0,0,1,8.19.73l.34.06.42-2.51-.14,0a54,54,0,0,0-9.47-.86,23.83,23.83,0,0,0-7.76,1,3,3,0,0,0-2.26,3,2.39,2.39,0,0,0,1.63,2.52c1.25.43,4.66.67,9.34.67a47.91,47.91,0,0,1,5.21.16c.79.12.86.43.86.72a.8.8,0,0,1-.67.86,21,21,0,0,1-5.68.47,66,66,0,0,1-9.93-.81l-.15,0-.36,2.5.14,0a53.36,53.36,0,0,0,10.3.91c3.72,0,6.77-.39,8.16-1.05a2.85,2.85,0,0,0,1.69-3A2.65,2.65,0,0,0,220.64,133.78Z" transform="translate(0 -0.39)"/><path class="cls-1" d="M320.21,85.8A82.13,82.13,0,0,1,303,88.14c-6.08,0-9.55-.45-11.58-1.49a4.53,4.53,0,0,1-2.53-4.49,5.21,5.21,0,0,1,2.39-4.66c2.08-1.35,5.74-2,11.49-2a77.34,77.34,0,0,1,17.14,2.21l.27.07,1.21-5.25-.24-.08a62.33,62.33,0,0,0-18.38-2.62c-8.86,0-13.55,1.82-15.92,3.35a9.86,9.86,0,0,0-4.86,9c0,4.1,1.66,7.18,4.81,8.91,3.6,2,8.14,2.75,16.2,2.75a70.76,70.76,0,0,0,18.28-2.69l.23-.08-1-5.32Z" transform="translate(0 -0.39)"/><polygon class="cls-1" points="341.05 69.92 334.22 69.92 334.22 92.96 367.28 92.96 367.28 87.28 341.05 87.28 341.05 69.92"/><polygon class="cls-1" points="420.66 70.66 420.8 70.58 420.8 69.92 414.89 69.92 399.42 79.29 384.02 69.96 383.95 69.92 378.04 69.92 378.04 70.58 395.96 81.34 377.81 92.25 377.68 92.33 377.68 92.96 383.62 92.96 399.42 83.39 415.15 92.92 415.22 92.96 421.16 92.96 421.16 92.33 402.88 81.34 420.66 70.66"/><path class="cls-1" d="M474.31,72.59c-3.33-1.9-8.39-2.82-15.45-2.82-5.85,0-10.93.84-13.59,2.25a6.26,6.26,0,0,0-3.52,5.67c0,3.07,1.63,5.15,4.73,6,2.77.76,7.23.87,11.65.87a101.15,101.15,0,0,0,17.15-1.48,5.6,5.6,0,0,1-2.52,5c-2.35,1.62-7.73,2.59-14.4,2.59a69.46,69.46,0,0,1-14.49-1.51l-.34-.07v3.13l.21,0a67.26,67.26,0,0,0,14.62,1.53c8.18,0,13.65-1,16.73-3.22C477.87,88.58,479,86,479,81.63,479,77.59,477.3,74.3,474.31,72.59Zm-16.18,8.83c-5.14,0-8.33-.2-10.06-.62a3,3,0,0,1-2.6-3.11,3.46,3.46,0,0,1,1.91-3.23c1.3-.71,4.34-1.56,11.48-1.56,6.12,0,10.67.74,13.16,2.12a6.21,6.21,0,0,1,3.24,5.12A146.77,146.77,0,0,1,458.13,81.42Z" transform="translate(0 -0.39)"/><path class="cls-1" d="M519.45,80.07c-2.42-.65-6.66-1-12.24-1a130.86,130.86,0,0,0-16.34,1.07,6.08,6.08,0,0,1,2.6-4.64c2.53-1.7,7.28-2.6,13.74-2.6a66.68,66.68,0,0,1,14.13,1.62l.27.06.64-3-.25-.07a61.34,61.34,0,0,0-14.79-1.7c-7,0-12.64,1.21-15.9,3.39-2.82,1.9-4.19,4.84-4.19,9s1.66,7.24,4.67,8.91c3.38,1.88,8.16,2.71,15.48,2.71,7.11,0,11.93-.77,14.34-2.29A6,6,0,0,0,524.39,86C524.39,82.86,522.82,81,519.45,80.07Zm-.91,9.25c-1.95.91-5.32,1.29-11.27,1.29-6.57,0-10.79-.68-13.29-2.14a6,6,0,0,1-3.13-5.37l.5,0a146,146,0,0,1,15.86-.85,55.71,55.71,0,0,1,10.2.62c2.25.48,3.25,1.46,3.25,3.17A3.26,3.26,0,0,1,518.54,89.32Z" transform="translate(0 -0.39)"/><rect class="cls-2" width="552.27" height="162.51"/></svg>